<?xml version="1.0" encoding="UTF-8"?>
<svg id="Layer_1" data-name="Layer 1" xmlns="http://www.w3.org/2000/svg" viewBox="0 0 651.97 651.97">
  <defs>
    <style>
      .cls-1 {
        fill: #fff;
        stroke-width: 0px;
      }
    </style>
  </defs>
  <g>
    <polygon class="cls-1" points="67.13 418.74 67.13 343.92 48.74 343.92 48.74 327.34 86.58 327.34 86.58 418.74 67.13 418.74"/>
    <rect class="cls-1" x="67.13" y="289.09" width="19.45" height="21.58"/>
  </g>
  <g>
    <path class="cls-1" d="M162.28,341.89v-46.46c-4.85.68-9.6,3.01-13.39,6.79-1.46,1.45-3.88,1.45-5.33,0-1.55-1.55-1.55-3.98,0-5.43,12.42-12.42,32.69-12.42,45.1,0,1.45,1.45,1.45,3.88,0,5.43-.78.68-1.75,1.07-2.72,1.07s-1.94-.39-2.72-1.07c-3.69-3.78-8.44-6.11-13.29-6.79v46.46c0,2.04-1.75,3.78-3.88,3.78s-3.78-1.75-3.78-3.78Z"/>
    <path class="cls-1" d="M199.52,338.1c-.68-.68-1.07-1.65-1.07-2.72v-35.79c0-.97.39-1.94,1.07-2.72,6.01-6.01,14.06-9.41,22.6-9.41s16.59,3.39,22.6,9.41c1.55,1.55,1.55,3.98,0,5.43-1.46,1.46-3.88,1.46-5.43,0-4.56-4.66-10.67-7.18-17.17-7.18-5.92,0-11.64,2.13-16,6.11v12.42h28.32c2.04,0,3.78,1.75,3.78,3.88s-1.75,3.78-3.78,3.78h-28.32v12.42c4.36,3.98,10.09,6.11,16,6.11,6.5,0,12.61-2.52,17.17-7.18,1.55-1.45,3.98-1.45,5.43,0,1.55,1.55,1.55,3.88,0,5.43-6.01,6.11-13.97,9.41-22.6,9.41s-16.59-3.3-22.6-9.41Z"/>
    <path class="cls-1" d="M258.6,338.1c-.68-.68-1.07-1.65-1.07-2.72v-35.79c0-.97.39-1.94,1.07-2.72,6.01-6.01,14.06-9.41,22.6-9.41s16.59,3.39,22.6,9.41c1.55,1.55,1.55,3.98,0,5.43-1.46,1.46-3.88,1.46-5.43,0-4.56-4.66-10.67-7.18-17.17-7.18-5.92,0-11.64,2.13-16,6.11v32.49c4.36,3.98,10.09,6.11,16,6.11,6.5,0,12.61-2.52,17.17-7.18,1.55-1.45,3.98-1.45,5.43,0,1.55,1.55,1.55,3.88,0,5.43-6.01,6.11-13.97,9.41-22.6,9.41s-16.59-3.3-22.6-9.41Z"/>
    <path class="cls-1" d="M153.06,416.57v-42.19c0-1.07.39-2.04,1.07-2.72,6.01-6.11,14.06-9.41,22.6-9.41s16.59,3.3,22.6,9.41c1.45,1.45,1.45,3.88,0,5.43-1.46,1.46-3.88,1.46-5.43-.1-4.56-4.56-10.67-7.08-17.17-7.08-5.92,0-11.64,2.13-16,6.11v12.42h28.52c2.13,0,3.78,1.75,3.78,3.78s-1.65,3.88-3.78,3.88h-28.52v20.47c0,2.04-1.75,3.78-3.88,3.78s-3.78-1.75-3.78-3.78Z"/>
    <path class="cls-1" d="M209.61,416.57v-48.6c0-2.13,1.75-3.88,3.78-3.88s3.88,1.75,3.88,3.88v44.72h28.42c2.04,0,3.78,1.75,3.78,3.88s-1.75,3.78-3.78,3.78h-32.3c-2.04,0-3.78-1.75-3.78-3.78Z"/>
    <path class="cls-1" d="M258.3,412.79c-.68-.68-1.07-1.65-1.07-2.72v-35.79c0-.97.39-1.94,1.07-2.72,6.01-6.01,14.06-9.41,22.6-9.41s16.59,3.39,22.6,9.41c.78.78,1.16,1.75,1.16,2.72v35.79c0,1.07-.39,2.04-1.16,2.72-6.01,6.11-13.97,9.41-22.6,9.41s-16.59-3.3-22.6-9.41ZM297.01,408.43v-32.49c-4.46-3.98-10.09-6.11-16.1-6.11s-11.64,2.13-16,6.11v32.49c4.36,3.98,10.09,6.11,16,6.11s11.64-2.13,16.1-6.11Z"/>
    <path class="cls-1" d="M318.25,416.48v-42.19c0-1.07.39-2.04,1.16-2.72,12.42-12.42,32.59-12.42,45.01,0,.68.68,1.16,1.65,1.16,2.72,0,.97-.48,1.94-1.16,2.62l-17.17,17.17,19.79,19.79c1.45,1.46,1.45,3.88,0,5.43-1.46,1.46-3.88,1.46-5.33,0l-22.5-22.5c-.68-.68-1.07-1.65-1.07-2.72,0-.97.39-1.94,1.07-2.62l16.97-16.97c-9.12-6.6-21.73-6.11-30.36,1.45v40.54c0,2.13-1.65,3.78-3.78,3.78s-3.78-1.65-3.78-3.78Z"/>
    <path class="cls-1" d="M378.87,412.79c-.68-.68-1.07-1.65-1.07-2.72v-35.79c0-.97.39-1.94,1.07-2.72,6.01-6.01,14.06-9.41,22.6-9.41s16.59,3.39,22.6,9.41c1.55,1.55,1.55,3.98,0,5.43-1.45,1.46-3.88,1.46-5.43,0-4.56-4.66-10.67-7.18-17.17-7.18-5.92,0-11.64,2.13-16,6.11v12.42h28.32c2.04,0,3.78,1.75,3.78,3.88s-1.75,3.78-3.78,3.78h-28.32v12.42c4.36,3.98,10.09,6.11,16,6.11,6.5,0,12.61-2.52,17.17-7.18,1.55-1.46,3.98-1.46,5.43,0,1.55,1.55,1.55,3.88,0,5.43-6.01,6.11-13.97,9.41-22.6,9.41s-16.59-3.3-22.6-9.41Z"/>
    <path class="cls-1" d="M439.98,412.79c-1.55-1.55-1.55-3.88,0-5.43,1.46-1.46,3.88-1.46,5.34,0,4.66,4.66,10.67,7.18,17.17,7.18,5.14,0,10.09-1.55,14.16-4.46l-36.57-32.98c-.78-.68-1.26-1.65-1.26-2.72s.39-2.04,1.16-2.81c6.01-6.01,13.97-9.41,22.5-9.41s16.59,3.39,22.6,9.41c1.55,1.55,1.55,3.98,0,5.43-1.45,1.46-3.88,1.46-5.33,0-4.66-4.66-10.67-7.18-17.27-7.18-5.04,0-9.99,1.55-14.06,4.56l36.57,32.88c.78.68,1.26,1.65,1.26,2.72s-.39,2.04-1.16,2.81c-6.01,6.11-13.97,9.41-22.6,9.41s-16.49-3.3-22.5-9.41Z"/>
    <path class="cls-1" d="M519.72,416.57v-46.46c-4.85.68-9.6,3.01-13.39,6.79-1.46,1.46-3.88,1.46-5.34,0-1.55-1.55-1.55-3.98,0-5.43,12.42-12.42,32.69-12.42,45.1,0,1.46,1.46,1.46,3.88,0,5.43-.78.68-1.75,1.07-2.72,1.07s-1.94-.39-2.72-1.07c-3.69-3.78-8.44-6.11-13.29-6.79v46.46c0,2.04-1.75,3.78-3.88,3.78s-3.78-1.75-3.78-3.78Z"/>
    <path class="cls-1" d="M555.9,416.57v-42.29c0-.97.39-1.94,1.07-2.72,6.11-6.01,14.06-9.31,22.6-9.31s16.49,3.3,22.6,9.31c.68.78,1.07,1.75,1.07,2.72v42.29c0,2.04-1.65,3.78-3.78,3.78s-3.78-1.75-3.78-3.78v-16.68h-32.11v16.68c0,2.04-1.75,3.78-3.88,3.78s-3.78-1.75-3.78-3.78ZM595.67,392.23v-16.3c-4.46-3.88-10.09-6.11-16.1-6.11s-11.64,2.23-16,6.11v16.3h32.11Z"/>
  </g>
  <path class="cls-1" d="M541.68,279.63c0-27.5-22.37-49.87-49.86-49.87s-49.87,22.37-49.87,49.87c0,20.13-15.37,36.74-34.99,38.71v-7.68l18.83-18.83c1.53-1.53,1.53-4.01,0-5.54-1.53-1.53-4.01-1.53-5.54,0l-13.29,13.29v-19.97c0-2.16-1.75-3.91-3.91-3.91s-3.91,1.75-3.91,3.91v19.97l-13.29-13.29c-1.53-1.53-4.01-1.53-5.54,0-1.53,1.53-1.53,4.01,0,5.54l18.83,18.83v7.68c-19.62-1.97-34.99-18.58-34.99-38.71,0-21.45,17.45-38.9,38.9-38.9,10.46,0,19.97,4.16,26.97,10.9,1.56-3.43,3.39-6.72,5.47-9.82-8.73-7.5-20.06-12.04-32.44-12.04-27.5,0-49.86,22.37-49.86,49.87s20.28,47.69,45.95,49.7v12.42c0,2.16,1.75,3.91,3.91,3.91s3.91-1.75,3.91-3.91v-12.42c25.67-2,45.95-23.52,45.95-49.7,0-21.45,17.45-38.9,38.91-38.9s38.9,17.45,38.9,38.9c0,20.13-15.37,36.74-34.99,38.71v-7.68l18.83-18.83c1.53-1.53,1.53-4.01,0-5.54-1.53-1.53-4.01-1.53-5.54,0l-13.29,13.29v-19.97c0-2.16-1.75-3.91-3.91-3.91s-3.91,1.75-3.91,3.91v19.97l-13.29-13.29c-1.53-1.53-4.01-1.53-5.54,0-1.53,1.53-1.53,4.01,0,5.54l18.83,18.83v7.68c-8.91-.9-16.94-4.81-23.06-10.71-1.56,3.43-3.39,6.72-5.47,9.82,7.8,6.7,17.68,11.03,28.53,11.88v12.42c0,2.16,1.75,3.91,3.91,3.91s3.91-1.75,3.91-3.91v-12.42c25.67-2,45.95-23.52,45.95-49.7Z"/>
  <rect class="cls-1" x="103.7" y="346.89" width="19.45" height="21.58" transform="translate(226.86 715.35) rotate(180)"/>
</svg>