<?xml version="1.0" encoding="UTF-8"?>
<svg id="Layer_1" data-name="Layer 1" xmlns="http://www.w3.org/2000/svg" viewBox="0 0 841.89 595.28">
  <defs>
    <style>
      .cls-1 {
        fill: #fff;
        stroke-width: 0px;
      }
    </style>
  </defs>
  <path class="cls-1" d="M227.03,223.56h45.2c23.21,0,42.88,9.83,42.88,35.78,0,15.57-6.01,22.12-19.94,26.77v.82c1.91,1.5,4.23,3.14,6.28,6.15l22.4,33.46h-43.15l-16.39-33.05h-.68v33.05h-36.6v-102.97ZM263.63,269.17h2.59c6.15,0,12.29-.96,12.29-8.6s-5.6-8.88-12.02-8.88h-2.87v17.48Z"/>
  <path class="cls-1" d="M367.55,326.53h-39.6l35.78-102.97h41.38l36.74,102.97h-39.6l-3.41-12.84h-28.27l-3,12.84ZM392.27,289.25l-4.37-18.16c-1.09-4.37-1.78-8.88-2.46-13.25h-1.37l-6.83,31.41h15.02Z"/>
  <path class="cls-1" d="M456.72,223.56h37.42v102.97h-37.42v-102.97Z"/>
  <path class="cls-1" d="M614.86,223.56l-44.79,71.15.41.55c2.87-.27,5.87-.55,8.74-.55h31.14v31.82h-100.24l37.14-60.22c2.73-4.51,5.87-8.33,9.15-12.43l-.55-.41c-2.87.68-5.74,1.23-8.88,1.23h-28v-31.13h95.86Z"/>
  <path class="cls-1" d="M494.2,353.01c0,10.33-8.38,18.71-18.71,18.71s-18.71-8.38-18.71-18.71,8.38-18.71,18.71-18.71,18.71,8.38,18.71,18.71Z"/>
</svg>