<?xml version="1.0" encoding="UTF-8"?>
<svg id="Layer_1" data-name="Layer 1" xmlns="http://www.w3.org/2000/svg" viewBox="0 0 651.97 651.97">
  <defs>
    <style>
      .cls-1 {
        fill: #fff;
        stroke-width: 0px;
      }
    </style>
  </defs>
  <g>
    <path class="cls-1" d="M113.06,445.13c-5.42,0-9.45-4.22-9.45-9.58s3.96-9.64,9.58-9.64c3.43,0,5.5,1.2,7.27,2.89l-2.1,2.42c-1.49-1.38-3.08-2.31-5.2-2.31-3.56,0-6.13,2.92-6.13,6.58s2.58,6.64,6.13,6.64c2.28,0,3.74-.93,5.34-2.42l2.1,2.12c-1.94,2.02-4.06,3.29-7.54,3.29Z"/>
    <path class="cls-1" d="M133.95,445.13c-5.71,0-9.69-4.33-9.69-9.58s4.04-9.64,9.74-9.64,9.69,4.33,9.69,9.58-4.04,9.64-9.74,9.64ZM133.95,428.91c-3.69,0-6.27,2.95-6.27,6.58s2.63,6.64,6.32,6.64,6.27-2.95,6.27-6.58-2.63-6.64-6.32-6.64Z"/>
    <path class="cls-1" d="M162.23,426.23h3.21v18.58h-2.73l-10.25-13.22v13.22h-3.21v-18.58h3.03l9.96,12.85v-12.85Z"/>
    <path class="cls-1" d="M175.08,436.98v7.83h-3.27v-18.58h3.27v7.73h8.87v-7.73h3.27v18.58h-3.27v-7.83h-8.87Z"/>
    <path class="cls-1" d="M207.37,429.15h-10.51v4.83h9.32v2.92h-9.32v4.99h10.65v2.92h-13.91v-18.58h13.78v2.92Z"/>
    <path class="cls-1" d="M221.6,445.13c-5.42,0-9.45-4.22-9.45-9.58s3.96-9.64,9.58-9.64c3.42,0,5.5,1.2,7.27,2.89l-2.1,2.42c-1.49-1.38-3.08-2.31-5.2-2.31-3.56,0-6.13,2.92-6.13,6.58s2.58,6.64,6.13,6.64c2.28,0,3.74-.93,5.34-2.42l2.1,2.12c-1.94,2.02-4.06,3.29-7.54,3.29Z"/>
    <path class="cls-1" d="M237.61,426.23v18.58h-3.27v-18.58h3.27Z"/>
    <path class="cls-1" d="M253.3,440.25h-.11l-5.81-8.71v13.28h-3.21v-18.58h3.48l5.66,8.79,5.66-8.79h3.48v18.58h-3.27v-13.33l-5.87,8.76Z"/>
    <path class="cls-1" d="M282.59,429.15h-10.51v4.83h9.32v2.92h-9.32v4.99h10.65v2.92h-13.91v-18.58h13.78v2.92Z"/>
    <path class="cls-1" d="M301.18,426.23h3.21v18.58h-2.73l-10.25-13.22v13.22h-3.21v-18.58h3.03l9.96,12.85v-12.85Z"/>
    <path class="cls-1" d="M318.62,444.81h-3.29v-15.56h-5.89v-3.03h15.08v3.03h-5.89v15.56Z"/>
    <path class="cls-1" d="M337.42,445.13c-5.71,0-9.69-4.33-9.69-9.58s4.04-9.64,9.74-9.64,9.69,4.33,9.69,9.58-4.04,9.64-9.74,9.64ZM337.42,428.91c-3.69,0-6.27,2.95-6.27,6.58s2.63,6.64,6.32,6.64,6.27-2.95,6.27-6.58-2.63-6.64-6.32-6.64Z"/>
    <path class="cls-1" d="M369.23,438.84h-3.69v5.97h-3.27v-18.58h7.33c4.33,0,7.06,2.44,7.06,6.24,0,4.19-3.34,6.37-7.43,6.37ZM369.33,429.2h-3.8v6.69h3.8c2.47,0,4.01-1.35,4.01-3.35,0-2.2-1.57-3.34-4.01-3.34Z"/>
    <path class="cls-1" d="M397.53,444.81h-3.45l-1.88-4.49h-8.79l-1.91,4.49h-3.34l8.18-18.72h3.03l8.18,18.72ZM387.79,430l-3.19,7.43h6.4l-3.21-7.43Z"/>
    <path class="cls-1" d="M414.23,444.81l-4.57-6.48h-4.09v6.48h-3.27v-18.58h8.28c4.28,0,6.9,2.26,6.9,5.89,0,3.08-1.83,4.94-4.43,5.66l5.02,7.04h-3.85ZM410.33,429.2h-4.75v6.24h4.78c2.34,0,3.82-1.22,3.82-3.13,0-2.04-1.43-3.11-3.85-3.11Z"/>
    <path class="cls-1" d="M440.89,444.81h-3.45l-1.88-4.49h-8.79l-1.91,4.49h-3.34l8.18-18.72h3.03l8.18,18.72ZM431.15,430l-3.19,7.43h6.4l-3.21-7.43Z"/>
    <path class="cls-1" d="M463.09,444.81h-3.29v-15.56h-5.89v-3.03h15.08v3.03h-5.89v15.56Z"/>
    <path class="cls-1" d="M481.89,445.13c-5.71,0-9.69-4.33-9.69-9.58s4.04-9.64,9.74-9.64,9.69,4.33,9.69,9.58-4.04,9.64-9.74,9.64ZM481.89,428.91c-3.69,0-6.27,2.95-6.27,6.58s2.63,6.64,6.32,6.64,6.27-2.95,6.27-6.58-2.63-6.64-6.32-6.64Z"/>
    <path class="cls-1" d="M504.11,444.81h-6.93v-18.58h6.93c5.84,0,9.88,4.01,9.88,9.27s-4.04,9.32-9.88,9.32ZM504.11,429.2h-3.66v12.64h3.66c3.9,0,6.45-2.63,6.45-6.29s-2.55-6.35-6.45-6.35Z"/>
    <path class="cls-1" d="M528.41,445.13c-5.71,0-9.69-4.33-9.69-9.58s4.04-9.64,9.74-9.64,9.69,4.33,9.69,9.58-4.04,9.64-9.74,9.64ZM528.41,428.91c-3.69,0-6.27,2.95-6.27,6.58s2.63,6.64,6.32,6.64,6.27-2.95,6.27-6.58-2.63-6.64-6.32-6.64Z"/>
    <path class="cls-1" d="M550.74,434.03c3.93.96,5.97,2.36,5.97,5.47,0,3.5-2.74,5.58-6.64,5.58-2.84,0-5.52-.98-7.75-2.97l1.96-2.34c1.78,1.54,3.56,2.42,5.87,2.42,2.02,0,3.29-.93,3.29-2.36,0-1.35-.74-2.07-4.2-2.87-3.96-.96-6.19-2.12-6.19-5.58,0-3.24,2.66-5.42,6.35-5.42,2.71,0,4.86.82,6.74,2.34l-1.75,2.47c-1.67-1.25-3.34-1.91-5.04-1.91-1.91,0-3.03.98-3.03,2.23,0,1.46.85,2.1,4.41,2.95Z"/>
  </g>
  <g>
    <path class="cls-1" d="M113.65,319.91v-46.86c-4.89.68-9.68,3.03-13.5,6.85-1.47,1.47-3.91,1.47-5.38,0-1.57-1.57-1.57-4.01,0-5.48,12.52-12.52,32.97-12.52,45.49,0,1.47,1.47,1.47,3.91,0,5.48-.78.68-1.76,1.08-2.74,1.08s-1.96-.39-2.74-1.08c-3.72-3.81-8.51-6.16-13.4-6.85v46.86c0,2.05-1.76,3.81-3.91,3.81s-3.81-1.76-3.81-3.81Z"/>
    <path class="cls-1" d="M151.22,316.1c-.68-.68-1.08-1.66-1.08-2.74v-36.1c0-.98.39-1.96,1.08-2.74,6.07-6.06,14.18-9.49,22.79-9.49s16.73,3.42,22.79,9.49c1.56,1.57,1.56,4.01,0,5.48-1.47,1.47-3.91,1.47-5.48,0-4.6-4.7-10.76-7.24-17.31-7.24-5.97,0-11.74,2.15-16.14,6.16v12.52h28.56c2.05,0,3.82,1.76,3.82,3.91s-1.76,3.82-3.82,3.82h-28.56v12.52c4.4,4.01,10.17,6.16,16.14,6.16,6.55,0,12.72-2.54,17.31-7.24,1.57-1.47,4.01-1.47,5.48,0,1.56,1.56,1.56,3.91,0,5.48-6.07,6.16-14.09,9.49-22.79,9.49s-16.73-3.33-22.79-9.49Z"/>
    <path class="cls-1" d="M210.8,316.1c-.68-.68-1.08-1.66-1.08-2.74v-36.1c0-.98.39-1.96,1.08-2.74,6.07-6.06,14.18-9.49,22.79-9.49s16.73,3.42,22.79,9.49c1.56,1.57,1.56,4.01,0,5.48-1.47,1.47-3.91,1.47-5.48,0-4.6-4.7-10.76-7.24-17.31-7.24-5.97,0-11.74,2.15-16.14,6.16v32.77c4.4,4.01,10.17,6.16,16.14,6.16,6.55,0,12.72-2.54,17.31-7.24,1.57-1.47,4.01-1.47,5.48,0,1.56,1.56,1.56,3.91,0,5.48-6.07,6.16-14.09,9.49-22.79,9.49s-16.73-3.33-22.79-9.49Z"/>
    <path class="cls-1" d="M104.36,395.24v-42.55c0-1.08.39-2.05,1.08-2.74,6.07-6.16,14.18-9.49,22.79-9.49s16.73,3.33,22.79,9.49c1.47,1.47,1.47,3.91,0,5.48-1.47,1.47-3.91,1.47-5.48-.1-4.6-4.6-10.76-7.14-17.31-7.14-5.97,0-11.74,2.15-16.14,6.16v12.52h28.76c2.15,0,3.81,1.76,3.81,3.82s-1.66,3.91-3.81,3.91h-28.76v20.64c0,2.05-1.76,3.82-3.91,3.82s-3.81-1.76-3.81-3.82Z"/>
    <path class="cls-1" d="M161.39,395.24v-49.01c0-2.15,1.76-3.91,3.81-3.91s3.91,1.76,3.91,3.91v45.1h28.66c2.05,0,3.82,1.76,3.82,3.91s-1.76,3.82-3.82,3.82h-32.58c-2.05,0-3.81-1.76-3.81-3.82Z"/>
    <path class="cls-1" d="M210.5,391.42c-.68-.69-1.08-1.66-1.08-2.74v-36.1c0-.98.39-1.96,1.08-2.74,6.07-6.07,14.18-9.49,22.79-9.49s16.73,3.42,22.79,9.49c.78.78,1.17,1.76,1.17,2.74v36.1c0,1.08-.39,2.05-1.17,2.74-6.07,6.16-14.09,9.49-22.79,9.49s-16.73-3.33-22.79-9.49ZM249.53,387.02v-32.77c-4.5-4.01-10.17-6.16-16.24-6.16s-11.74,2.15-16.14,6.16v32.77c4.4,4.01,10.17,6.16,16.14,6.16s11.74-2.15,16.24-6.16Z"/>
    <path class="cls-1" d="M270.96,395.14v-42.55c0-1.08.39-2.05,1.17-2.74,12.52-12.52,32.87-12.52,45.39,0,.69.68,1.17,1.66,1.17,2.74,0,.98-.49,1.96-1.17,2.64l-17.31,17.31,19.96,19.96c1.47,1.47,1.47,3.91,0,5.48-1.47,1.47-3.91,1.47-5.38,0l-22.7-22.7c-.69-.68-1.08-1.66-1.08-2.74,0-.98.39-1.96,1.08-2.64l17.12-17.12c-9.2-6.65-21.91-6.16-30.62,1.47v40.89c0,2.15-1.66,3.82-3.81,3.82s-3.81-1.66-3.81-3.82Z"/>
    <path class="cls-1" d="M332.1,391.42c-.68-.69-1.08-1.66-1.08-2.74v-36.1c0-.98.39-1.96,1.08-2.74,6.07-6.07,14.18-9.49,22.79-9.49s16.73,3.42,22.79,9.49c1.57,1.56,1.57,4.01,0,5.48-1.47,1.47-3.91,1.47-5.48,0-4.6-4.7-10.76-7.24-17.32-7.24-5.97,0-11.74,2.15-16.14,6.16v12.52h28.56c2.05,0,3.82,1.76,3.82,3.91s-1.76,3.82-3.82,3.82h-28.56v12.52c4.4,4.01,10.17,6.16,16.14,6.16,6.55,0,12.72-2.54,17.32-7.24,1.56-1.47,4.01-1.47,5.48,0,1.57,1.57,1.57,3.91,0,5.48-6.06,6.16-14.09,9.49-22.79,9.49s-16.73-3.33-22.79-9.49Z"/>
    <path class="cls-1" d="M393.73,391.42c-1.56-1.57-1.56-3.91,0-5.48,1.47-1.47,3.91-1.47,5.38,0,4.7,4.7,10.76,7.24,17.31,7.24,5.18,0,10.17-1.57,14.28-4.5l-36.88-33.26c-.78-.68-1.27-1.66-1.27-2.74s.39-2.05,1.17-2.84c6.07-6.07,14.09-9.49,22.7-9.49s16.73,3.42,22.79,9.49c1.57,1.56,1.57,4.01,0,5.48-1.47,1.47-3.91,1.47-5.38,0-4.7-4.7-10.76-7.24-17.41-7.24-5.09,0-10.08,1.57-14.18,4.6l36.88,33.16c.78.68,1.27,1.66,1.27,2.74s-.39,2.05-1.17,2.84c-6.06,6.16-14.09,9.49-22.79,9.49s-16.63-3.33-22.7-9.49Z"/>
    <path class="cls-1" d="M474.14,395.24v-46.86c-4.89.68-9.68,3.03-13.5,6.85-1.47,1.47-3.91,1.47-5.38,0-1.56-1.57-1.56-4.01,0-5.48,12.52-12.52,32.97-12.52,45.49,0,1.47,1.47,1.47,3.91,0,5.48-.78.68-1.76,1.08-2.74,1.08s-1.96-.39-2.74-1.08c-3.72-3.82-8.51-6.16-13.4-6.85v46.86c0,2.05-1.76,3.82-3.91,3.82s-3.81-1.76-3.81-3.82Z"/>
    <path class="cls-1" d="M510.63,395.24v-42.65c0-.98.39-1.96,1.08-2.74,6.16-6.07,14.18-9.39,22.79-9.39s16.63,3.33,22.79,9.39c.68.78,1.08,1.76,1.08,2.74v42.65c0,2.05-1.66,3.82-3.82,3.82s-3.81-1.76-3.81-3.82v-16.83h-32.38v16.83c0,2.05-1.76,3.82-3.91,3.82s-3.82-1.76-3.82-3.82ZM550.74,370.68v-16.43c-4.5-3.91-10.17-6.16-16.24-6.16s-11.74,2.25-16.14,6.16v16.43h32.38Z"/>
  </g>
  <path class="cls-1" d="M496.29,257.13c0-27.73-22.56-50.29-50.29-50.29s-50.29,22.56-50.29,50.29c0,20.3-15.5,37.05-35.29,39.04v-7.75l18.99-18.99c1.54-1.54,1.54-4.04,0-5.58-1.54-1.54-4.04-1.54-5.58,0l-13.4,13.4v-20.14c0-2.18-1.77-3.95-3.95-3.95s-3.95,1.77-3.95,3.95v20.14l-13.4-13.4c-1.54-1.54-4.04-1.54-5.58,0-1.54,1.54-1.54,4.04,0,5.58l18.99,18.99v7.75c-19.79-1.99-35.29-18.74-35.29-39.04,0-21.64,17.6-39.24,39.24-39.24,10.55,0,20.14,4.2,27.2,11,1.57-3.46,3.41-6.78,5.52-9.91-8.8-7.56-20.23-12.15-32.72-12.15-27.73,0-50.29,22.56-50.29,50.29s20.45,48.1,46.34,50.12v12.53c0,2.18,1.77,3.95,3.95,3.95s3.95-1.77,3.95-3.95v-12.53c25.89-2.02,46.34-23.72,46.34-50.12,0-21.64,17.6-39.24,39.24-39.24s39.24,17.6,39.24,39.24c0,20.3-15.5,37.05-35.29,39.04v-7.75l18.99-18.99c1.54-1.54,1.54-4.04,0-5.58-1.54-1.54-4.04-1.54-5.58,0l-13.4,13.4v-20.14c0-2.18-1.77-3.95-3.95-3.95s-3.95,1.77-3.95,3.95v20.14l-13.4-13.4c-1.54-1.54-4.04-1.54-5.58,0-1.54,1.54-1.54,4.04,0,5.58l18.99,18.99v7.75c-8.99-.9-17.08-4.86-23.25-10.8-1.57,3.46-3.41,6.78-5.52,9.9,7.86,6.76,17.83,11.13,28.77,11.98v12.53c0,2.18,1.77,3.95,3.95,3.95s3.95-1.77,3.95-3.95v-12.53c25.89-2.02,46.34-23.72,46.34-50.12Z"/>
</svg>